<?xml version="1.0" encoding="utf-8"?>
<!-- Generator: Adobe Illustrator 16.0.0, SVG Export Plug-In . SVG Version: 6.00 Build 0)  -->
<!DOCTYPE svg PUBLIC "-//W3C//DTD SVG 1.1//EN" "http://www.w3.org/Graphics/SVG/1.1/DTD/svg11.dtd">
<svg version="1.1" id="Layer_1" xmlns="http://www.w3.org/2000/svg" xmlns:xlink="http://www.w3.org/1999/xlink" x="0px" y="0px"
	 width="300px" height="100px" viewBox="0 0 300 100" enable-background="new 0 0 300 100" xml:space="preserve">
<rect fill="#683064" width="300" height="100"/>
<g enable-background="new    ">
	<path fill="#FCFCFC" d="M104.68,35.791h4.837c7.162,0,13.115,3.783,13.115,11.565c0,7.969-5.829,11.813-13.208,11.813h-4.744
		V35.791z M107.595,56.504h1.023c5.953,0,11.101-2.232,11.101-9.023c0-6.821-5.147-9.022-11.101-9.022h-1.023V56.504z"/>
	<path fill="#FCFCFC" d="M127.899,44.659v8.03c0,2.326,0.589,4.372,3.349,4.372s3.349-2.046,3.349-4.372v-8.03h2.791V53
		c0,3.969-1.86,6.666-6.139,6.666s-6.139-2.697-6.139-6.666v-8.341H127.899z"/>
	<path fill="#FCFCFC" d="M151.926,56.906h-0.063c-1.115,1.644-2.883,2.76-4.929,2.76c-4.465,0-6.945-3.689-6.945-7.845
		c0-3.969,2.636-7.597,6.821-7.597c2.17,0,3.907,1.117,5.053,2.854h0.063V32.257h2.791V59.17h-2.791V56.906z M152.081,51.914
		c0-2.821-1.706-5.209-4.713-5.209c-2.883,0-4.589,2.512-4.589,5.209c0,2.729,1.643,5.271,4.589,5.271
		C150.407,57.186,152.081,54.768,152.081,51.914z"/>
	<path fill="#FCFCFC" d="M172.541,51.945c0,4.372-3.41,7.721-7.751,7.721s-7.751-3.349-7.751-7.721c0-4.371,3.41-7.721,7.751-7.721
		S172.541,47.574,172.541,51.945z M159.829,51.945c0,2.729,2.202,5.055,4.961,5.055s4.961-2.326,4.961-5.055
		c0-2.76-2.202-5.054-4.961-5.054S159.829,49.186,159.829,51.945z"/>
	<path fill="#FCFCFC" d="M180.91,47.977c-0.342-0.713-1.055-1.271-1.861-1.271c-0.775,0-1.52,0.621-1.52,1.427
		c0,1.271,1.676,1.829,3.381,2.604s3.348,1.829,3.348,4.124c0,2.759-2.294,4.806-4.992,4.806c-2.107,0-4.247-1.209-5.021-3.256
		l2.387-1.085c0.59,1.085,1.303,1.86,2.635,1.86c1.18,0,2.202-0.807,2.202-2.047c0-0.774-0.372-1.146-1.022-1.581l-2.729-1.457
		c-1.613-0.868-2.791-1.675-2.791-3.659c0-2.355,1.922-4.217,4.279-4.217c1.767,0,3.193,0.962,3.969,2.543L180.91,47.977z"/>
	<path fill="#FCFCFC" d="M201.186,51.945c0,4.372-3.411,7.721-7.752,7.721s-7.752-3.349-7.752-7.721
		c0-4.371,3.411-7.721,7.752-7.721S201.186,47.574,201.186,51.945z M188.473,51.945c0,2.729,2.201,5.055,4.961,5.055
		s4.961-2.326,4.961-5.055c0-2.76-2.201-5.054-4.961-5.054S188.473,49.186,188.473,51.945z"/>
</g>
<g>
	<path fill="#FFC10E" d="M83.345,49.15c0,16.88-13.686,30.564-30.565,30.564c-16.88,0-30.565-13.684-30.565-30.564
		c0-16.88,13.685-30.566,30.565-30.566C69.659,18.584,83.345,32.27,83.345,49.15L83.345,49.15z"/>
	<path fill="#FFFFFF" d="M47.494,40.39c0,2.651-2.149,4.8-4.8,4.8c-2.65,0-4.8-2.149-4.8-4.8c0-2.65,2.15-4.8,4.8-4.8
		C45.345,35.589,47.494,37.739,47.494,40.39L47.494,40.39z"/>
	<path fill="#FFFFFF" d="M65.007,41.544c0,2.651-2.149,4.8-4.8,4.8c-2.65,0-4.801-2.149-4.801-4.8s2.15-4.8,4.801-4.8
		S65.007,38.893,65.007,41.544L65.007,41.544z"/>
	<path fill="#333333" d="M45.824,38.585c0,1.758-1.428,3.186-3.188,3.186c-1.758,0-3.187-1.428-3.187-3.186
		c0-1.76,1.429-3.189,3.187-3.189C44.396,35.396,45.824,36.825,45.824,38.585L45.824,38.585z"/>
	<path fill="#333333" d="M62.45,40.35c0,1.76-1.428,3.188-3.186,3.188c-1.759,0-3.188-1.428-3.188-3.188
		c0-1.758,1.429-3.186,3.188-3.186C61.022,37.164,62.45,38.592,62.45,40.35L62.45,40.35z"/>
	
		<path fill="none" stroke="#333333" stroke-width="2.0262" stroke-linecap="round" stroke-linejoin="round" stroke-miterlimit="10" d="
		M42.693,56.829c0,0,9.932-2.392,17.514,2.126"/>
	
		<path fill="none" stroke="#333333" stroke-width="2.0262" stroke-linecap="round" stroke-linejoin="round" stroke-miterlimit="10" d="
		M46.255,32.52c0,0-5.582-8.359-13.558,0"/>
	
		<path fill="none" stroke="#333333" stroke-width="2.0262" stroke-linecap="round" stroke-linejoin="round" stroke-miterlimit="10" d="
		M57.011,34.14c0,0,5.582-8.358,13.558,0"/>
	<path fill="#FFAD0E" d="M28.911,67.739c0,0-2.194,18.399,11.763,16.206l7.975-2.685c0,0,0.59-0.344,0.311-1.34
		c-0.278-0.996-1.553-0.956-1.553-0.956s2.85,0.276,2.638-2.668c-0.169-2.35-3.236-1.514-3.236-1.514s2.589-0.477,2.549-2.788
		s-2.668-1.673-2.668-1.673l11.87-3.663c0,0,1.115-0.439,0.836-2.072c0,0,0-1.233-2.47-0.956
		c-2.469,0.279-14.936,2.628-14.936,2.628s-5.178,1.153-5.617-2.668c-0.438-3.823-0.716-5.217-1.752-6.771
		c-1.036-1.555-3.027-1.035-3.027-0.398s0.041,4.859,0.041,4.859S30.253,64.718,28.911,67.739z"/>
</g>
</svg>
