<?xml version="1.0" encoding="utf-8"?>
<!-- Generator: Adobe Illustrator 16.0.0, SVG Export Plug-In . SVG Version: 6.00 Build 0)  -->
<!DOCTYPE svg PUBLIC "-//W3C//DTD SVG 1.1//EN" "http://www.w3.org/Graphics/SVG/1.1/DTD/svg11.dtd">
<svg version="1.1" id="Layer_1" xmlns="http://www.w3.org/2000/svg" xmlns:xlink="http://www.w3.org/1999/xlink" x="0px" y="0px"
	 width="300px" height="100px" viewBox="0 0 300 100" enable-background="new 0 0 300 100" xml:space="preserve">
<rect fill="#683064" width="300" height="100"/>
<g enable-background="new    ">
	<path fill="#FCFCFC" d="M107.812,38.458v6.573h8.123v2.666h-8.123V59.17h-2.915V35.791h11.317v2.667H107.812z"/>
	<path fill="#FCFCFC" d="M132.923,59.17h-2.79v-2.264h-0.063c-1.116,1.644-2.853,2.76-4.93,2.76c-4.434,0-6.945-3.689-6.945-7.845
		c0-3.969,2.636-7.597,6.853-7.597c2.139,0,3.875,1.117,5.022,2.854h0.063v-2.419h2.79V59.17z M130.288,51.914
		c0-2.821-1.706-5.209-4.713-5.209c-2.883,0-4.589,2.512-4.589,5.209c0,2.729,1.643,5.271,4.589,5.271
		C128.613,57.186,130.288,54.768,130.288,51.914z"/>
	<path fill="#FCFCFC" d="M139.462,59.17h-2.791V32.257h2.791V59.17z"/>
	<path fill="#FCFCFC" d="M149.258,47.977c-0.341-0.713-1.054-1.271-1.86-1.271c-0.775,0-1.519,0.621-1.519,1.427
		c0,1.271,1.674,1.829,3.379,2.604s3.349,1.829,3.349,4.124c0,2.759-2.295,4.806-4.992,4.806c-2.108,0-4.248-1.209-5.023-3.256
		l2.388-1.085c0.589,1.085,1.302,1.86,2.636,1.86c1.178,0,2.201-0.807,2.201-2.047c0-0.774-0.372-1.146-1.023-1.581l-2.729-1.457
		c-1.612-0.868-2.79-1.675-2.79-3.659c0-2.355,1.922-4.217,4.278-4.217c1.768,0,3.193,0.962,3.969,2.543L149.258,47.977z"/>
	<path fill="#FCFCFC" d="M169.533,51.945c0,4.372-3.41,7.721-7.751,7.721s-7.751-3.349-7.751-7.721c0-4.371,3.41-7.721,7.751-7.721
		S169.533,47.574,169.533,51.945z M156.821,51.945c0,2.729,2.201,5.055,4.961,5.055s4.961-2.326,4.961-5.055
		c0-2.76-2.201-5.054-4.961-5.054S156.821,49.186,156.821,51.945z"/>
</g>
<g>
	<circle fill="#FFFFFF" cx="53.563" cy="52.065" r="25.903"/>
	<path fill="#FB3449" d="M53.432,19.089c-16.822,0-30.455,13.632-30.455,30.456C22.977,66.367,36.609,80,53.432,80
		c16.824,0,30.456-13.633,30.456-30.456C83.888,32.721,70.256,19.089,53.432,19.089z"/>
	<g>
		<path fill="#FFFFFF" d="M65.779,56.951l-7.409-7.407l7.409-7.407l-4.94-4.94l-7.407,7.413l-7.409-7.413l-4.937,4.94l7.406,7.407
			l-7.406,7.407l4.937,4.939l7.409-7.406l7.407,7.406L65.779,56.951z"/>
	</g>
	<g>
		<path fill="#FFC10E" d="M84.019,49.544C84.019,66.364,70.383,80,53.563,80S23.107,66.364,23.107,49.544
			c0-16.82,13.636-30.456,30.456-30.456C70.383,19.089,84.019,32.724,84.019,49.544L84.019,49.544z"/>
		<path fill="#333333" d="M33.568,49.565c0,11.042,8.951,19.994,19.993,19.994c11.041,0,19.993-8.951,19.993-19.994H33.568z"/>
		<path fill="#CA2027" d="M42.444,57.479c0,6.14,4.978,11.119,11.117,11.119s11.117-4.979,11.117-11.119H42.444z"/>
		<path fill="#333333" d="M49.089,39.04c0,2.642-2.142,4.783-4.783,4.783c-2.641,0-4.783-2.142-4.783-4.783s2.142-4.783,4.783-4.783
			C46.947,34.257,49.089,36.398,49.089,39.04L49.089,39.04z"/>
		<path fill="#333333" d="M67.176,39.04c0,2.642-2.142,4.783-4.784,4.783c-2.641,0-4.782-2.142-4.782-4.783s2.142-4.783,4.782-4.783
			C65.034,34.256,67.176,36.398,67.176,39.04L67.176,39.04z"/>
	</g>
	<path fill="#FFC10E" d="M83.888,49.544C83.888,66.364,70.253,80,53.432,80c-16.82,0-30.455-13.636-30.455-30.456
		c0-16.82,13.635-30.456,30.455-30.456C70.253,19.089,83.888,32.724,83.888,49.544L83.888,49.544z"/>
	<path fill="#FFFFFF" d="M48.958,39.04c0,2.642-2.142,4.783-4.784,4.783c-2.641,0-4.782-2.142-4.782-4.783s2.142-4.783,4.782-4.783
		C46.816,34.256,48.958,36.398,48.958,39.04L48.958,39.04z"/>
	<path fill="#FFFFFF" d="M67.045,39.04c0,2.642-2.143,4.783-4.783,4.783c-2.642,0-4.782-2.142-4.782-4.783s2.141-4.783,4.782-4.783
		C64.902,34.256,67.045,36.398,67.045,39.04L67.045,39.04z"/>
	<path fill="#333333" d="M47.293,39.04c0,1.814-1.474,3.288-3.288,3.288c-1.813,0-3.286-1.474-3.286-3.288s1.474-3.288,3.286-3.288
		C45.819,35.752,47.293,37.226,47.293,39.04L47.293,39.04z"/>
	<path fill="#333333" d="M65.719,39.04c0,1.814-1.475,3.288-3.288,3.288s-3.286-1.474-3.286-3.288s1.473-3.288,3.286-3.288
		S65.719,37.226,65.719,39.04L65.719,39.04z"/>
	
		<path fill="none" stroke="#333333" stroke-width="2.0578" stroke-linecap="round" stroke-linejoin="round" stroke-miterlimit="10" d="
		M44.176,29.515c0,0-4.784,0-9.415,4.741"/>
	
		<path fill="none" stroke="#333333" stroke-width="2.0578" stroke-linecap="round" stroke-linejoin="round" stroke-miterlimit="10" d="
		M59.691,26.163c0,0,4.737,0,9.474,5.227"/>
	
		<path fill="none" stroke="#333333" stroke-width="2.0578" stroke-linecap="round" stroke-linejoin="round" stroke-miterlimit="10" d="
		M37.614,66.752c0,0,6.644-8.617,13.368-7.189"/>
	<path fill="#FFC10E" stroke="#FFAD0E" stroke-width="1.6463" stroke-miterlimit="10" d="M58.302,47.425
		c0,0,10.79,2.395,19.569,2.12c8.779-0.275,10.426,4.938,10.151,7.957s-6.097,6.268-14.846,3.271
		c-8.751-2.996-18.079-2.723-18.079-2.723"/>
</g>
</svg>
