<?xml version="1.0" encoding="UTF-8"?>
<svg width="200px" height="200px" viewBox="0 0 200 200" version="1.1" xmlns="http://www.w3.org/2000/svg" xmlns:xlink="http://www.w3.org/1999/xlink">
    <!-- Generator: Sketch 49.2 (51160) - http://www.bohemiancoding.com/sketch -->
    <title>fuerza</title>
    <desc>Created with Sketch.</desc>
    <defs></defs>
    <g id="fuerza" stroke="none" stroke-width="1" fill="none" fill-rule="evenodd">
        <g id="Group" transform="translate(29.000000, 14.000000)" fill-rule="nonzero">
            <path d="M124.483128,21.5971261 L123.661733,21.5971261 L123.65311,13.4355275 C123.644486,6.00449571 117.627393,-0.010792662 110.217594,1.45395546e-05 C102.807796,0.0108217411 96.8101057,6.03907875 96.8187293,13.4657876 L96.8273528,21.5971261 L96.8187293,21.5971261 L96.8101057,14.287135 C96.8014821,6.85610319 90.7865451,0.840814818 83.3745903,0.85162202 C76.2967988,0.862429221 70.5082303,6.36977912 70.018843,13.3404241 C69.5962882,6.28332151 63.7495107,0.695998318 56.6070424,0.706805519 C49.1993995,0.717612721 43.2017095,6.74586973 43.212489,14.1725786 L43.212489,17.1683349 C42.3458206,11.5572359 37.4993767,7.26461541 31.6590668,7.27326117 C25.2129515,7.28190693 19.9935383,12.529884 20.000006,18.9925905 L20.0237208,38.9945591 C20.0237208,40.3908495 20.2716483,41.7352654 20.7222296,42.9780936 L20.7416327,82.0353199 C20.7782828,88.1089672 22.5180872,94.0442822 25.7497684,99.1193441 L42.2919233,122.76334 L41.6537795,135.613102 L113.876142,136 L113.695047,118.63715 L138.895262,72.0473042 C140.835565,68.4593133 141.866081,64.4217428 141.889795,60.3106834 L141.999746,39.7316102 C142.051487,29.7327874 134.195419,21.5971261 124.483128,21.5971261 Z" id="Shape" fill="#FFC10E"></path>
            <g transform="translate(78.000000, 0.000000)" fill="#FFAD0E" id="Shape">
                <path d="M19.2520952,22.9060146 L19.2433333,15.6346812 C19.2345714,8.18568124 13.1209524,2.15584791 5.59228571,2.16668124 C3.59895238,2.16884791 1.70857143,2.59784791 0,3.36268124 C4.65038095,5.50551457 7.87914286,10.1638479 7.88571429,15.5740146 L7.89885714,25.7356812 C9.92504762,23.9741812 12.553619,22.9060146 15.4297143,22.9060146 L19.2520952,22.9060146 Z"></path>
                <path d="M45.4589524,13.468021 C45.4501905,6.01902097 39.3365714,-0.0129790265 31.8079048,2.09734992e-05 C29.8408571,0.00218764017 27.972381,0.420354307 26.2857143,1.16352097 C30.9755238,3.29118764 34.2371429,7.97118764 34.2437143,13.4073543 L34.2524762,21.593021 L45.4699048,21.5908543 L45.4589524,13.468021 Z"></path>
            </g>
            <path d="M42.976537,20.5811268 C42.9701396,14.1761949 37.7903873,8.98931311 31.4100583,9.00001654 C29.4908417,9.00215722 27.6825132,9.47953016 26.0895634,10.3122569 C29.7168828,12.2645624 32.1841423,16.1028121 32.1884073,20.5233283 L32.2118644,40.3332349 C32.2182618,44.8072683 29.6955582,48.6904724 26,50.627793 C27.6292016,51.5054742 29.4908417,52.004254 31.4676348,51.9999727 C37.8436988,51.9914099 43.0063914,46.7938247 42.9999941,40.3931741 L42.976537,20.5811268 Z" id="Shape" fill="#FFAD0E"></path>
            <path d="M68.972322,15.3971469 C68.9638085,7.98734648 63.0235179,1.98708927 55.7082979,2.00002086 C53.6629309,2.00217613 51.7303677,2.47633438 50,3.31473239 C54.6526246,5.3902524 57.9047794,10.0951955 57.9111645,15.5760339 L57.936705,37.7537087 C57.9430901,43.0901443 54.8718471,47.7002557 50.4171612,49.8641416 C52.0581372,50.5969316 53.8672548,51.0042767 55.7742775,50.9999661 C63.0894974,50.9913451 69.0085043,44.9803115 68.9999908,37.5748217 L68.972322,15.3971469 Z" id="Shape" fill="#FFAD0E"></path>
            <path d="M95.2924758,41.4447806 L84.086984,41.4538578 C83.0182459,41.4561271 81.9820251,41.2950076 81,41 C82.4047512,46.1104387 86.7989342,49.8388805 92.0060518,49.8343419 L103.211544,49.8252648 C103.822871,49.8252648 104.42119,49.8865356 105,50 L95.2924758,41.4447806 Z" id="Shape" fill="#FFAD0E"></path>
            <path d="M131.236955,23 C132.473408,25.4817204 133.168913,28.2967742 133.153886,31.2795699 L133.044409,51.7548387 C133.035822,53.5333333 132.82116,55.2967742 132.441209,57.0215054 L105.563388,108.690323 L102,117.666667 L102.178169,134.941935 L112.992838,135 L112.816815,117.722581 L137.906501,71.3698925 C139.842752,67.8 140.866689,63.7806452 140.890302,59.6924731 L140.99978,39.2172043 C141.034126,32.1032258 137.045707,25.9376344 131.236955,23 Z" id="Shape" fill="#FFAD0E"></path>
            <path d="M112.997169,57.6402387 C113.047213,55.9416027 112.433629,54.2493606 111.167296,52.9876385 C111.152065,52.9748508 111.13901,52.9620631 111.125955,52.9471441 C109.285202,51.1355499 106.856976,50.1338448 104.282968,50.1210571 C104.26121,50.1210571 104.241627,50.1210571 104.224221,50.1210571 L92.9751773,50.1295823 C92.9512432,50.1295823 92.9294849,50.1295823 92.9055507,50.1295823 C91.6370416,50.1210571 90.412049,49.9057971 89.269738,49.5179028 C87.4028755,50.4173061 85.394584,50.8755328 83.3014351,50.8797954 L83.2056986,50.8797954 C76.2495687,50.8414322 70.4988488,45.6325661 69.7634181,39 C68.9627125,45.5942029 63.2272235,50.7263427 56.2863243,50.7391304 L56.1905878,50.7391304 C49.630459,50.7028986 44.1473663,46.0716113 42.9223737,39.9825234 C42.9136704,46.3635976 37.6176991,51.5554135 31.0989111,51.5682012 L31.0140537,51.5682012 C25.9878854,51.5404945 21.6862686,48.413896 20,44.0511509 L20.0065275,55.5792839 C23.1266683,57.7127025 26.9082617,58.9765558 30.9835921,58.9978687 L31.1076144,59 C35.8596281,58.9914749 40.3984104,57.2672634 43.9036733,54.2493606 C47.4524527,56.7514919 51.7323112,58.1453538 56.1557745,58.1709292 L56.2950277,58.1709292 C61.2580969,58.1624041 65.9513632,56.485081 69.687264,53.4671782 C73.4340441,56.5575448 78.1534203,58.2838875 83.1687095,58.3115942 L83.3079626,58.3115942 C85.5294855,58.3073316 87.7074918,57.9663257 89.8049923,57.2971014 C90.8189293,57.4654731 91.8415696,57.5528559 92.8598583,57.5592498 L112.997169,57.6402387 Z" id="Shape" fill="#FFAD0E"></path>
            <rect id="Rectangle-path" fill="#39B54A" x="33" y="119" width="84" height="39"></rect>
            <path d="M0,152.083355 C0,152.083355 27.1361193,163.282705 40,131.537647 C40,131.537647 11.1440167,125.760171 0,152.083355 Z" id="Shape" fill="#39B54A"></path>
            <path d="M29.6572276,173 C29.6572276,173 55.330531,159.326582 37.9804067,130 C37.9804067,130 15.5535789,148.327521 29.6572276,173 Z" id="Shape" fill="#39B54A"></path>
        </g>
    </g>
</svg>