<?xml version="1.0" encoding="utf-8"?>
<!-- Generator: Adobe Illustrator 16.0.0, SVG Export Plug-In . SVG Version: 6.00 Build 0)  -->
<!DOCTYPE svg PUBLIC "-//W3C//DTD SVG 1.1//EN" "http://www.w3.org/Graphics/SVG/1.1/DTD/svg11.dtd">
<svg version="1.1" id="Layer_1" xmlns="http://www.w3.org/2000/svg" xmlns:xlink="http://www.w3.org/1999/xlink" x="0px" y="0px"
	 width="300px" height="100px" viewBox="0 0 300 100" enable-background="new 0 0 300 100" xml:space="preserve">
<rect fill="#683064" width="300" height="100"/>
<path fill="#FFC10E" d="M84.296,49c0,17.117-13.881,31-31,31c-17.12,0-31-13.883-31-31c0-17.118,13.88-31,31-31
	C70.415,18,84.296,31.882,84.296,49L84.296,49z"/>
<path fill="#FFFFFF" d="M47.957,37.227c0,2.683-2.18,4.862-4.869,4.862c-2.688,0-4.867-2.18-4.867-4.862
	c0-2.692,2.18-4.873,4.867-4.873C45.777,32.354,47.957,34.534,47.957,37.227L47.957,37.227z"/>
<path fill="#FFFFFF" d="M66.368,37.227c0,2.683-2.181,4.862-4.868,4.862s-4.868-2.18-4.868-4.862c0-2.692,2.181-4.873,4.868-4.873
	S66.368,34.534,66.368,37.227L66.368,37.227z"/>
<path fill="#333333" d="M46.521,35.226c0,1.714-1.396,3.109-3.114,3.109c-1.72,0-3.113-1.396-3.113-3.109
	c0-1.723,1.393-3.118,3.113-3.118C45.125,32.107,46.521,33.503,46.521,35.226L46.521,35.226z"/>
<path fill="#333333" d="M64.294,35.226c0,1.714-1.393,3.109-3.114,3.109c-1.716,0-3.113-1.396-3.113-3.109
	c0-1.723,1.396-3.118,3.113-3.118C62.901,32.107,64.294,33.503,64.294,35.226L64.294,35.226z"/>
<g enable-background="new    ">
	<path fill="#FCFCFC" d="M107.75,59.17h-2.914V35.791h2.914V59.17z"/>
	<path fill="#FCFCFC" d="M114.601,46.612h0.062c0.868-1.55,2.604-2.388,4.372-2.388c4.093,0,5.146,2.76,5.146,6.295v8.65h-2.79
		v-8.31c0-2.48-0.341-4.155-3.194-4.155c-3.597,0-3.597,3.163-3.597,5.799v6.666h-2.791V44.659h2.791V46.612z"/>
	<path fill="#FCFCFC" d="M138.689,48.783c-1.116-1.271-2.48-1.953-4.155-1.953c-2.729,0-4.837,2.418-4.837,5.084
		c0,2.977,2.078,5.147,5.023,5.147c1.612,0,2.915-0.744,3.969-1.923v3.566c-1.271,0.682-2.542,0.961-4,0.961
		c-4.278,0-7.782-3.287-7.782-7.627c0-4.496,3.473-7.814,7.938-7.814c1.302,0,2.729,0.311,3.845,0.962V48.783z"/>
	<path fill="#FCFCFC" d="M144.484,32.257v14.355h0.062c0.868-1.55,2.604-2.388,4.372-2.388c4.093,0,5.146,2.76,5.146,6.295v8.65
		h-2.789v-8.31c0-2.48-0.342-4.155-3.194-4.155c-3.597,0-3.597,3.163-3.597,5.799v6.666h-2.791V32.257H144.484z"/>
	<path fill="#FCFCFC" d="M159.581,52.38c0.03,2.48,1.706,4.806,4.372,4.806c2.139,0,3.287-1.085,4.34-2.821l2.357,1.333
		c-1.365,2.512-3.906,3.969-6.729,3.969c-4.434,0-7.131-3.349-7.131-7.627c0-4.465,2.387-7.814,7.068-7.814
		c4.621,0,6.791,3.411,6.791,7.721v0.435H159.581z M167.859,50.271c-0.341-2.171-1.768-3.628-4-3.628
		c-2.17,0-3.782,1.55-4.123,3.628H167.859z"/>
	<path fill="#FCFCFC" d="M186.646,67.479h-2.791V56.906h-0.063c-1.115,1.644-2.883,2.76-4.93,2.76c-4.465,0-6.945-3.689-6.945-7.845
		c0-3.969,2.635-7.597,6.821-7.597c2.171,0,3.907,1.117,5.054,2.854h0.063v-2.419h2.791V67.479z M184.01,51.914
		c0-2.821-1.705-5.209-4.713-5.209c-2.883,0-4.588,2.512-4.588,5.209c0,2.729,1.643,5.271,4.588,5.271
		C182.336,57.186,184.01,54.768,184.01,51.914z"/>
	<path fill="#FCFCFC" d="M192.937,44.659v8.03c0,2.326,0.589,4.372,3.349,4.372s3.349-2.046,3.349-4.372v-8.03h2.79V53
		c0,3.969-1.859,6.666-6.139,6.666s-6.139-2.697-6.139-6.666v-8.341H192.937z"/>
	<path fill="#FCFCFC" d="M207.816,52.38c0.031,2.48,1.705,4.806,4.371,4.806c2.141,0,3.287-1.085,4.342-2.821l2.355,1.333
		c-1.363,2.512-3.906,3.969-6.728,3.969c-4.435,0-7.132-3.349-7.132-7.627c0-4.465,2.389-7.814,7.07-7.814
		c4.619,0,6.789,3.411,6.789,7.721v0.435H207.816z M216.096,50.271c-0.342-2.171-1.768-3.628-4-3.628
		c-2.171,0-3.783,1.55-4.125,3.628H216.096z"/>
	<path fill="#FCFCFC" d="M234.881,59.17h-2.791v-2.264h-0.061c-1.117,1.644-2.854,2.76-4.931,2.76c-4.435,0-6.945-3.689-6.945-7.845
		c0-3.969,2.636-7.597,6.853-7.597c2.139,0,3.875,1.117,5.023,2.854h0.061v-2.419h2.791V59.17z M232.246,51.914
		c0-2.821-1.705-5.209-4.713-5.209c-2.885,0-4.59,2.512-4.59,5.209c0,2.729,1.645,5.271,4.59,5.271
		C230.571,57.186,232.246,54.768,232.246,51.914z"/>
	<path fill="#FCFCFC" d="M238.289,32.257h2.791v14.821h0.061c1.148-1.736,2.885-2.854,5.055-2.854c4.186,0,6.821,3.628,6.821,7.597
		c0,4.155-2.48,7.845-6.945,7.845c-2.046,0-3.813-1.116-4.931-2.76h-0.061v2.264h-2.791V32.257z M250.227,51.914
		c0-2.821-1.705-5.209-4.713-5.209c-2.885,0-4.59,2.512-4.59,5.209c0,2.729,1.645,5.271,4.59,5.271
		C248.552,57.186,250.227,54.768,250.227,51.914z"/>
	<path fill="#FCFCFC" d="M258.656,59.17h-2.791V32.257h2.791V59.17z"/>
	<path fill="#FCFCFC" d="M264.297,52.38c0.031,2.48,1.705,4.806,4.373,4.806c2.139,0,3.285-1.085,4.34-2.821l2.357,1.333
		c-1.365,2.512-3.908,3.969-6.729,3.969c-4.434,0-7.132-3.349-7.132-7.627c0-4.465,2.388-7.814,7.069-7.814
		c4.619,0,6.791,3.411,6.791,7.721v0.435H264.297z M272.576,50.271c-0.342-2.171-1.768-3.628-4-3.628
		c-2.17,0-3.783,1.55-4.123,3.628H272.576z"/>
</g>
<path fill="#333333" d="M43.894,64.643c7.609-6.662,14.174-2.563,14.174-2.563s0.99,0.586,1.285,1.296
	c0.551,1.325-0.155,3.098-6.056,2.376C47.523,65.045,43.894,64.643,43.894,64.643z"/>
</svg>
