<?xml version="1.0" encoding="utf-8"?>
<!-- Generator: Adobe Illustrator 16.0.0, SVG Export Plug-In . SVG Version: 6.00 Build 0)  -->
<!DOCTYPE svg PUBLIC "-//W3C//DTD SVG 1.1//EN" "http://www.w3.org/Graphics/SVG/1.1/DTD/svg11.dtd">
<svg version="1.1" id="Layer_1" xmlns="http://www.w3.org/2000/svg" xmlns:xlink="http://www.w3.org/1999/xlink" x="0px" y="0px"
	 width="300px" height="100px" viewBox="0 0 300 100" enable-background="new 0 0 300 100" xml:space="preserve">
<rect x="0" fill="#683064" width="300" height="100"/>
<path fill="#FFC10E" d="M84.296,49c0,17.117-13.881,31-31,31c-17.12,0-31-13.883-31-31c0-17.118,13.88-31,31-31
	C70.415,18,84.296,31.882,84.296,49L84.296,49z"/>
<path fill="#333333" d="M32.943,49.025c0,11.233,9.11,20.352,20.353,20.352c11.24,0,20.353-9.117,20.353-20.352H32.943z"/>
<path fill="#FB3449" d="M41.98,57.081c0,6.241,5.065,11.315,11.313,11.315c6.253,0,11.314-5.074,11.314-11.315H41.98z"/>
<path fill="#FFFFFF" d="M48.74,38.312c0,2.684-2.181,4.862-4.869,4.862s-4.867-2.18-4.867-4.862c0-2.691,2.18-4.872,4.867-4.872
	C46.561,33.438,48.74,35.619,48.74,38.312L48.74,38.312z"/>
<path fill="#FFFFFF" d="M67.151,38.312c0,2.684-2.181,4.862-4.867,4.862c-2.688,0-4.868-2.18-4.868-4.862
	c0-2.691,2.181-4.872,4.868-4.872C64.97,33.439,67.151,35.619,67.151,38.312L67.151,38.312z"/>
<path fill="#333333" d="M46.459,38.311c0,1.618-1.319,2.938-2.941,2.938c-1.625,0-2.939-1.318-2.939-2.938
	c0-1.627,1.315-2.944,2.939-2.944C45.14,35.365,46.459,36.684,46.459,38.311L46.459,38.311z"/>
<path fill="#333333" d="M64.578,38.311c0,1.618-1.316,2.938-2.941,2.938c-1.621,0-2.94-1.318-2.94-2.938
	c0-1.627,1.319-2.944,2.94-2.944C63.262,35.365,64.578,36.684,64.578,38.311L64.578,38.311z"/>
<g enable-background="new    ">
	<path fill="#FCFCFC" d="M112.649,53.093l6.945-17.302h3.193L112.649,60.41l-10.17-24.619h3.193L112.649,53.093z"/>
	<path fill="#FCFCFC" d="M123.653,52.38c0.031,2.48,1.705,4.806,4.372,4.806c2.139,0,3.286-1.085,4.341-2.821l2.356,1.333
		c-1.364,2.512-3.907,3.969-6.729,3.969c-4.434,0-7.131-3.349-7.131-7.627c0-4.465,2.387-7.814,7.069-7.814
		c4.62,0,6.791,3.411,6.791,7.721v0.435H123.653z M131.931,50.271c-0.341-2.171-1.767-3.628-4-3.628c-2.17,0-3.783,1.55-4.124,3.628
		H131.931z"/>
	<path fill="#FCFCFC" d="M140.083,47.016h0.093c0.682-1.705,2.108-2.791,3.969-2.791c0.806,0,1.612,0.279,2.294,0.714l-1.271,2.542
		c-0.496-0.434-1.054-0.589-1.706-0.589c-3.007,0-3.379,2.79-3.379,5.147v7.131h-2.791V44.659h2.791V47.016z"/>
	<path fill="#FCFCFC" d="M158.808,56.906h-0.062c-1.116,1.644-2.884,2.76-4.93,2.76c-4.465,0-6.946-3.689-6.946-7.845
		c0-3.969,2.635-7.597,6.821-7.597c2.171,0,3.907,1.117,5.055,2.854h0.062V32.257h2.791V59.17h-2.791V56.906z M158.963,51.914
		c0-2.821-1.705-5.209-4.713-5.209c-2.884,0-4.589,2.512-4.589,5.209c0,2.729,1.644,5.271,4.589,5.271
		C157.289,57.186,158.963,54.768,158.963,51.914z"/>
	<path fill="#FCFCFC" d="M178.834,59.17h-2.79v-2.264h-0.063c-1.116,1.644-2.853,2.76-4.93,2.76c-4.434,0-6.945-3.689-6.945-7.845
		c0-3.969,2.636-7.597,6.853-7.597c2.139,0,3.875,1.117,5.022,2.854h0.063v-2.419h2.79V59.17z M176.199,51.914
		c0-2.821-1.706-5.209-4.713-5.209c-2.884,0-4.59,2.512-4.59,5.209c0,2.729,1.644,5.271,4.59,5.271
		C174.525,57.186,176.199,54.768,176.199,51.914z"/>
	<path fill="#FCFCFC" d="M193.28,56.906h-0.062c-1.116,1.644-2.884,2.76-4.931,2.76c-4.465,0-6.945-3.689-6.945-7.845
		c0-3.969,2.636-7.597,6.822-7.597c2.17,0,3.906,1.117,5.054,2.854h0.062V32.257h2.791V59.17h-2.791V56.906z M193.435,51.914
		c0-2.821-1.705-5.209-4.713-5.209c-2.884,0-4.589,2.512-4.589,5.209c0,2.729,1.644,5.271,4.589,5.271
		C191.76,57.186,193.435,54.768,193.435,51.914z"/>
	<path fill="#FCFCFC" d="M201.369,52.38c0.031,2.48,1.705,4.806,4.372,4.806c2.14,0,3.286-1.085,4.341-2.821l2.356,1.333
		c-1.364,2.512-3.907,3.969-6.729,3.969c-4.434,0-7.132-3.349-7.132-7.627c0-4.465,2.388-7.814,7.07-7.814
		c4.619,0,6.79,3.411,6.79,7.721v0.435H201.369z M209.648,50.271c-0.341-2.171-1.767-3.628-3.999-3.628
		c-2.171,0-3.783,1.55-4.124,3.628H209.648z"/>
	<path fill="#FCFCFC" d="M217.799,47.016h0.093c0.683-1.705,2.108-2.791,3.969-2.791c0.807,0,1.612,0.279,2.295,0.714l-1.271,2.542
		c-0.496-0.434-1.054-0.589-1.705-0.589c-3.008,0-3.38,2.79-3.38,5.147v7.131h-2.791V44.659h2.791V47.016z"/>
	<path fill="#FCFCFC" d="M239.905,51.945c0,4.372-3.41,7.721-7.752,7.721c-4.34,0-7.751-3.349-7.751-7.721
		c0-4.371,3.411-7.721,7.751-7.721C236.494,44.225,239.905,47.574,239.905,51.945z M227.192,51.945c0,2.729,2.202,5.055,4.961,5.055
		c2.76,0,4.961-2.326,4.961-5.055c0-2.76-2.201-5.054-4.961-5.054C229.394,46.892,227.192,49.186,227.192,51.945z"/>
</g>
</svg>
